<?xml version="1.0" encoding="UTF-8"?>
<!-- Do not edit this file with editors other than draw.io -->
<!DOCTYPE svg PUBLIC "-//W3C//DTD SVG 1.1//EN" "http://www.w3.org/Graphics/SVG/1.1/DTD/svg11.dtd">
<svg xmlns="http://www.w3.org/2000/svg" style="background: transparent; background-color: transparent; color-scheme: light dark;" xmlns:xlink="http://www.w3.org/1999/xlink" version="1.1" width="437px" height="603px" viewBox="0 0 437 603" content="&lt;mxfile host=&quot;Electron&quot; agent=&quot;Mozilla/5.0 (Windows NT 10.0; Win64; x64) AppleWebKit/537.36 (KHTML, like Gecko) draw.io/29.0.3 Chrome/140.0.7339.249 Electron/38.7.0 Safari/537.36&quot; version=&quot;29.0.3&quot;&gt;&#10;  &lt;diagram name=&quot;Page-1&quot; id=&quot;E_L_duihjberjWnI2ZOU&quot;&gt;&#10;    &lt;mxGraphModel dx=&quot;1358&quot; dy=&quot;801&quot; grid=&quot;1&quot; gridSize=&quot;10&quot; guides=&quot;1&quot; tooltips=&quot;1&quot; connect=&quot;1&quot; arrows=&quot;1&quot; fold=&quot;1&quot; page=&quot;1&quot; pageScale=&quot;1&quot; pageWidth=&quot;1200&quot; pageHeight=&quot;1920&quot; math=&quot;0&quot; shadow=&quot;0&quot;&gt;&#10;      &lt;root&gt;&#10;        &lt;mxCell id=&quot;0&quot; /&gt;&#10;        &lt;mxCell id=&quot;1&quot; parent=&quot;0&quot; /&gt;&#10;        &lt;mxCell id=&quot;S4akncoR3bGAJPy8Hi97-21&quot; style=&quot;edgeStyle=orthogonalEdgeStyle;rounded=0;orthogonalLoop=1;jettySize=auto;html=1;entryX=0.5;entryY=1;entryDx=0;entryDy=0;dashed=1;dashPattern=8 4 1 4;flowAnimation=1;&quot; edge=&quot;1&quot; parent=&quot;1&quot; source=&quot;S4akncoR3bGAJPy8Hi97-7&quot; target=&quot;S4akncoR3bGAJPy8Hi97-9&quot;&gt;&#10;          &lt;mxGeometry relative=&quot;1&quot; as=&quot;geometry&quot; /&gt;&#10;        &lt;/mxCell&gt;&#10;        &lt;mxCell id=&quot;S4akncoR3bGAJPy8Hi97-7&quot; value=&quot;&amp;lt;font&amp;gt;Problem&amp;lt;/font&amp;gt;&quot; style=&quot;rounded=1;whiteSpace=wrap;html=1;fillColor=#FF0000;strokeColor=#FF6666;sketch=1;curveFitting=1;jiggle=2;shadow=1;glass=0;fontFamily=Comic Sans MS;&quot; vertex=&quot;1&quot; parent=&quot;1&quot;&gt;&#10;          &lt;mxGeometry x=&quot;240&quot; y=&quot;550&quot; width=&quot;120&quot; height=&quot;50&quot; as=&quot;geometry&quot; /&gt;&#10;        &lt;/mxCell&gt;&#10;        &lt;mxCell id=&quot;S4akncoR3bGAJPy8Hi97-22&quot; style=&quot;edgeStyle=orthogonalEdgeStyle;rounded=0;orthogonalLoop=1;jettySize=auto;html=1;entryX=0.5;entryY=1;entryDx=0;entryDy=0;dashed=1;dashPattern=8 4 1 4;flowAnimation=1;&quot; edge=&quot;1&quot; parent=&quot;1&quot; source=&quot;S4akncoR3bGAJPy8Hi97-8&quot; target=&quot;S4akncoR3bGAJPy8Hi97-10&quot;&gt;&#10;          &lt;mxGeometry relative=&quot;1&quot; as=&quot;geometry&quot; /&gt;&#10;        &lt;/mxCell&gt;&#10;        &lt;mxCell id=&quot;S4akncoR3bGAJPy8Hi97-8&quot; value=&quot;Solution&quot; style=&quot;rounded=1;whiteSpace=wrap;html=1;fillColor=#d5e8d4;strokeColor=#82b366;sketch=1;curveFitting=1;jiggle=2;shadow=1;strokeWidth=1;perimeterSpacing=0;fontFamily=Comic Sans MS;&quot; vertex=&quot;1&quot; parent=&quot;1&quot;&gt;&#10;          &lt;mxGeometry x=&quot;520&quot; y=&quot;550&quot; width=&quot;120&quot; height=&quot;50&quot; as=&quot;geometry&quot; /&gt;&#10;        &lt;/mxCell&gt;&#10;        &lt;mxCell id=&quot;S4akncoR3bGAJPy8Hi97-23&quot; style=&quot;edgeStyle=orthogonalEdgeStyle;rounded=0;orthogonalLoop=1;jettySize=auto;html=1;entryX=0.5;entryY=1;entryDx=0;entryDy=0;flowAnimation=1;&quot; edge=&quot;1&quot; parent=&quot;1&quot; source=&quot;S4akncoR3bGAJPy8Hi97-9&quot; target=&quot;S4akncoR3bGAJPy8Hi97-11&quot;&gt;&#10;          &lt;mxGeometry relative=&quot;1&quot; as=&quot;geometry&quot; /&gt;&#10;        &lt;/mxCell&gt;&#10;        &lt;mxCell id=&quot;S4akncoR3bGAJPy8Hi97-9&quot; value=&quot;CodeBERT&quot; style=&quot;rounded=1;whiteSpace=wrap;html=1;fillColor=#fff2cc;strokeColor=#d6b656;shadow=0;fontFamily=Comic Sans MS;fontColor=#000000;&quot; vertex=&quot;1&quot; parent=&quot;1&quot;&gt;&#10;          &lt;mxGeometry x=&quot;240&quot; y=&quot;420&quot; width=&quot;120&quot; height=&quot;60&quot; as=&quot;geometry&quot; /&gt;&#10;        &lt;/mxCell&gt;&#10;        &lt;mxCell id=&quot;S4akncoR3bGAJPy8Hi97-24&quot; style=&quot;edgeStyle=orthogonalEdgeStyle;rounded=0;orthogonalLoop=1;jettySize=auto;html=1;entryX=0.5;entryY=1;entryDx=0;entryDy=0;flowAnimation=1;&quot; edge=&quot;1&quot; parent=&quot;1&quot; source=&quot;S4akncoR3bGAJPy8Hi97-10&quot; target=&quot;S4akncoR3bGAJPy8Hi97-12&quot;&gt;&#10;          &lt;mxGeometry relative=&quot;1&quot; as=&quot;geometry&quot; /&gt;&#10;        &lt;/mxCell&gt;&#10;        &lt;mxCell id=&quot;S4akncoR3bGAJPy8Hi97-10&quot; value=&quot;CodeBERT&quot; style=&quot;rounded=1;whiteSpace=wrap;html=1;fillColor=#fff2cc;strokeColor=#d6b656;fontFamily=Comic Sans MS;fontColor=#000000;&quot; vertex=&quot;1&quot; parent=&quot;1&quot;&gt;&#10;          &lt;mxGeometry x=&quot;520&quot; y=&quot;420&quot; width=&quot;120&quot; height=&quot;60&quot; as=&quot;geometry&quot; /&gt;&#10;        &lt;/mxCell&gt;&#10;        &lt;mxCell id=&quot;S4akncoR3bGAJPy8Hi97-25&quot; style=&quot;edgeStyle=orthogonalEdgeStyle;rounded=0;orthogonalLoop=1;jettySize=auto;html=1;flowAnimation=1;&quot; edge=&quot;1&quot; parent=&quot;1&quot; source=&quot;S4akncoR3bGAJPy8Hi97-11&quot; target=&quot;S4akncoR3bGAJPy8Hi97-13&quot;&gt;&#10;          &lt;mxGeometry relative=&quot;1&quot; as=&quot;geometry&quot; /&gt;&#10;        &lt;/mxCell&gt;&#10;        &lt;mxCell id=&quot;S4akncoR3bGAJPy8Hi97-11&quot; value=&quot;Projector&quot; style=&quot;rounded=1;whiteSpace=wrap;html=1;fillColor=#dae8fc;strokeColor=#6c8ebf;fontFamily=Comic Sans MS;fontColor=#000000;&quot; vertex=&quot;1&quot; parent=&quot;1&quot;&gt;&#10;          &lt;mxGeometry x=&quot;240&quot; y=&quot;310&quot; width=&quot;120&quot; height=&quot;60&quot; as=&quot;geometry&quot; /&gt;&#10;        &lt;/mxCell&gt;&#10;        &lt;mxCell id=&quot;S4akncoR3bGAJPy8Hi97-26&quot; style=&quot;edgeStyle=orthogonalEdgeStyle;rounded=0;orthogonalLoop=1;jettySize=auto;html=1;flowAnimation=1;&quot; edge=&quot;1&quot; parent=&quot;1&quot; source=&quot;S4akncoR3bGAJPy8Hi97-12&quot; target=&quot;S4akncoR3bGAJPy8Hi97-19&quot;&gt;&#10;          &lt;mxGeometry relative=&quot;1&quot; as=&quot;geometry&quot; /&gt;&#10;        &lt;/mxCell&gt;&#10;        &lt;mxCell id=&quot;S4akncoR3bGAJPy8Hi97-12&quot; value=&quot;Projector&quot; style=&quot;rounded=1;whiteSpace=wrap;html=1;fillColor=#dae8fc;strokeColor=#6c8ebf;fontFamily=Comic Sans MS;fontColor=#000000;&quot; vertex=&quot;1&quot; parent=&quot;1&quot;&gt;&#10;          &lt;mxGeometry x=&quot;520&quot; y=&quot;310&quot; width=&quot;120&quot; height=&quot;60&quot; as=&quot;geometry&quot; /&gt;&#10;        &lt;/mxCell&gt;&#10;        &lt;mxCell id=&quot;S4akncoR3bGAJPy8Hi97-27&quot; style=&quot;edgeStyle=orthogonalEdgeStyle;rounded=0;orthogonalLoop=1;jettySize=auto;html=1;flowAnimation=1;&quot; edge=&quot;1&quot; parent=&quot;1&quot; source=&quot;S4akncoR3bGAJPy8Hi97-13&quot; target=&quot;S4akncoR3bGAJPy8Hi97-14&quot;&gt;&#10;          &lt;mxGeometry relative=&quot;1&quot; as=&quot;geometry&quot; /&gt;&#10;        &lt;/mxCell&gt;&#10;        &lt;mxCell id=&quot;S4akncoR3bGAJPy8Hi97-13&quot; value=&quot;z&amp;lt;sub&amp;gt;problem&amp;lt;/sub&amp;gt;&quot; style=&quot;ellipse;whiteSpace=wrap;html=1;aspect=fixed;fillColor=#FF0080;strokeColor=none;shadow=1;strokeWidth=1;fillStyle=solid;fontColor=#ffffff;fontFamily=Comic Sans MS;&quot; vertex=&quot;1&quot; parent=&quot;1&quot;&gt;&#10;          &lt;mxGeometry x=&quot;267.5&quot; y=&quot;210&quot; width=&quot;65&quot; height=&quot;65&quot; as=&quot;geometry&quot; /&gt;&#10;        &lt;/mxCell&gt;&#10;        &lt;mxCell id=&quot;S4akncoR3bGAJPy8Hi97-30&quot; style=&quot;edgeStyle=orthogonalEdgeStyle;rounded=0;orthogonalLoop=1;jettySize=auto;html=1;flowAnimation=1;&quot; edge=&quot;1&quot; parent=&quot;1&quot; source=&quot;S4akncoR3bGAJPy8Hi97-14&quot; target=&quot;S4akncoR3bGAJPy8Hi97-20&quot;&gt;&#10;          &lt;mxGeometry relative=&quot;1&quot; as=&quot;geometry&quot; /&gt;&#10;        &lt;/mxCell&gt;&#10;        &lt;mxCell id=&quot;S4akncoR3bGAJPy8Hi97-14&quot; value=&quot;Predictor&quot; style=&quot;rounded=1;whiteSpace=wrap;html=1;fillColor=#B266FF;strokeColor=none;shadow=1;fontFamily=Comic Sans MS;&quot; vertex=&quot;1&quot; parent=&quot;1&quot;&gt;&#10;          &lt;mxGeometry x=&quot;240&quot; y=&quot;110&quot; width=&quot;120&quot; height=&quot;60&quot; as=&quot;geometry&quot; /&gt;&#10;        &lt;/mxCell&gt;&#10;        &lt;mxCell id=&quot;S4akncoR3bGAJPy8Hi97-18&quot; value=&quot;&amp;lt;font face=&amp;quot;Comic Sans MS&amp;quot;&amp;gt;Loss( z&amp;lt;span style=&amp;quot;font-size: 10px;&amp;quot;&amp;gt;&amp;lt;sub&amp;gt;solution&amp;amp;nbsp;&amp;lt;/sub&amp;gt;&amp;lt;/span&amp;gt;, z&amp;lt;sub style=&amp;quot;&amp;quot;&amp;gt;predicted&amp;amp;nbsp;&amp;lt;/sub&amp;gt;)&amp;lt;/font&amp;gt;&quot; style=&quot;rounded=1;whiteSpace=wrap;html=1;fillColor=#fad9d5;strokeColor=none;shadow=1;fontColor=#000000;&quot; vertex=&quot;1&quot; parent=&quot;1&quot;&gt;&#10;          &lt;mxGeometry x=&quot;495&quot; y=&quot;100&quot; width=&quot;170&quot; height=&quot;60&quot; as=&quot;geometry&quot; /&gt;&#10;        &lt;/mxCell&gt;&#10;        &lt;mxCell id=&quot;S4akncoR3bGAJPy8Hi97-29&quot; style=&quot;edgeStyle=orthogonalEdgeStyle;rounded=0;orthogonalLoop=1;jettySize=auto;html=1;flowAnimation=1;&quot; edge=&quot;1&quot; parent=&quot;1&quot; source=&quot;S4akncoR3bGAJPy8Hi97-19&quot; target=&quot;S4akncoR3bGAJPy8Hi97-18&quot;&gt;&#10;          &lt;mxGeometry relative=&quot;1&quot; as=&quot;geometry&quot; /&gt;&#10;        &lt;/mxCell&gt;&#10;        &lt;mxCell id=&quot;S4akncoR3bGAJPy8Hi97-19&quot; value=&quot;z&amp;lt;span style=&amp;quot;font-size: 10px;&amp;quot;&amp;gt;&amp;lt;sub&amp;gt;solution&amp;lt;/sub&amp;gt;&amp;lt;/span&amp;gt;&quot; style=&quot;ellipse;whiteSpace=wrap;html=1;aspect=fixed;strokeColor=none;shadow=1;fillColor=#67AB9F;fontFamily=Comic Sans MS;fontColor=#000000;&quot; vertex=&quot;1&quot; parent=&quot;1&quot;&gt;&#10;          &lt;mxGeometry x=&quot;547.5&quot; y=&quot;210&quot; width=&quot;65&quot; height=&quot;65&quot; as=&quot;geometry&quot; /&gt;&#10;        &lt;/mxCell&gt;&#10;        &lt;mxCell id=&quot;S4akncoR3bGAJPy8Hi97-28&quot; style=&quot;edgeStyle=orthogonalEdgeStyle;rounded=0;orthogonalLoop=1;jettySize=auto;html=1;flowAnimation=1;&quot; edge=&quot;1&quot; parent=&quot;1&quot; source=&quot;S4akncoR3bGAJPy8Hi97-20&quot; target=&quot;S4akncoR3bGAJPy8Hi97-18&quot;&gt;&#10;          &lt;mxGeometry relative=&quot;1&quot; as=&quot;geometry&quot; /&gt;&#10;        &lt;/mxCell&gt;&#10;        &lt;mxCell id=&quot;S4akncoR3bGAJPy8Hi97-20&quot; value=&quot;z&amp;lt;sub&amp;gt;predicted&amp;lt;/sub&amp;gt;&quot; style=&quot;ellipse;whiteSpace=wrap;html=1;aspect=fixed;fillColor=#B3FF66;strokeColor=none;shadow=1;fontColor=#000000;&quot; vertex=&quot;1&quot; parent=&quot;1&quot;&gt;&#10;          &lt;mxGeometry x=&quot;267.5&quot; y=&quot;10&quot; width=&quot;65&quot; height=&quot;65&quot; as=&quot;geometry&quot; /&gt;&#10;        &lt;/mxCell&gt;&#10;      &lt;/root&gt;&#10;    &lt;/mxGraphModel&gt;&#10;  &lt;/diagram&gt;&#10;&lt;/mxfile&gt;&#10;"><defs><style>@keyframes ge-flow-animation-RAtdleRkRd2ussTb1lIe {&#xa;  to {&#xa;    stroke-dashoffset: 0;&#xa;  }&#xa;}</style></defs><g><g data-cell-id="0"><g data-cell-id="1"><g data-cell-id="S4akncoR3bGAJPy8Hi97-21"><g transform="translate(0.5,0.5)"><path d="M 64 544 L 64 480.37" fill="none" stroke="#000000" stroke-miterlimit="10" stroke-dasharray="8 4 1 4" pointer-events="stroke" style="stroke: light-dark(rgb(0, 0, 0), rgb(255, 255, 255)); animation: 531ms linear 0s infinite normal none running ge-flow-animation-RAtdleRkRd2ussTb1lIe; stroke-dashoffset: 17;"/><path d="M 64 475.12 L 67.5 482.12 L 64 480.37 L 60.5 482.12 Z" fill="#000000" stroke="#000000" stroke-miterlimit="10" pointer-events="all" style="fill: light-dark(rgb(0, 0, 0), rgb(255, 255, 255)); stroke: light-dark(rgb(0, 0, 0), rgb(255, 255, 255));"/></g></g><g data-cell-id="S4akncoR3bGAJPy8Hi97-7"><g transform="translate(0.5,0.5)" style="filter: drop-shadow(light-dark(rgba(0, 0, 0, 0.25), rgba(237, 237, 237, 0.25)) 2px 3px 2px);"><rect x="4" y="544" width="120" height="50" rx="7.5" ry="7.5" fill="none" stroke="none" pointer-events="all"/><path d="M 6.15 545.56 C 6.15 545.56 6.15 545.56 6.15 545.56 M 6.15 545.56 C 6.15 545.56 6.15 545.56 6.15 545.56 M 4.57 553.47 C 6.26 551.23 6.86 547.29 12.45 544.41 M 4.57 553.47 C 6.41 550.26 10.21 547.81 12.45 544.41 M 4.31 559.87 C 8.89 554.72 13.74 554.63 17.43 544.77 M 4.31 559.87 C 6.96 554.26 12.08 550.54 17.43 544.77 M 4.71 565.51 C 11.69 558.42 12.23 551.22 23.08 544.38 M 4.71 565.51 C 11.87 560.11 16.01 552.21 23.08 544.38 M 4.45 571.91 C 12.31 563.02 12.15 559.81 28.06 544.74 M 4.45 571.91 C 10.9 563.68 18.36 556.37 28.06 544.74 M 4.84 577.55 C 9.23 570.49 14.13 565.3 33.05 545.1 M 4.84 577.55 C 13.36 567.41 17.83 561.38 33.05 545.1 M 4.58 583.95 C 12.67 569.25 22.66 561.15 38.69 544.7 M 4.58 583.95 C 15.83 567.54 30.8 553.71 38.69 544.7 M 5.63 588.84 C 11.55 577.25 22.9 568.07 43.68 545.06 M 5.63 588.84 C 14.63 578.71 21.08 570.37 43.68 545.06 M 7.99 592.22 C 25.44 574.39 35.39 559.07 49.32 544.67 M 7.99 592.22 C 22.33 574.75 35.54 560.48 49.32 544.67 M 11.67 594.09 C 27.49 576.16 42.05 560.26 54.31 545.03 M 11.67 594.09 C 28.44 572.7 46.31 554.24 54.31 545.03 M 16.65 594.45 C 35.47 578.1 49.57 560.73 59.95 544.63 M 16.65 594.45 C 30.28 580.1 46.04 562.74 59.95 544.63 M 22.3 594.05 C 34.97 585.62 42.94 573.86 64.94 544.99 M 22.3 594.05 C 40.56 574.96 56.59 556.98 64.94 544.99 M 27.28 594.41 C 46.77 577.54 61.83 551.82 70.58 544.6 M 27.28 594.41 C 40.29 578.65 52.62 562.8 70.58 544.6 M 32.93 594.02 C 41.3 578.51 59.23 566.39 75.57 544.96 M 32.93 594.02 C 44.33 576.04 58.59 559.98 75.57 544.96 M 37.91 594.38 C 51.78 580.32 68.53 557.63 80.56 545.32 M 37.91 594.38 C 53.14 577.76 65.18 564.12 80.56 545.32 M 43.56 593.98 C 59.09 574.44 73.04 562.35 86.2 544.93 M 43.56 593.98 C 51.4 585.86 62.24 572.32 86.2 544.93 M 48.54 594.34 C 59.73 579.55 74.72 564.8 91.19 545.29 M 48.54 594.34 C 58 585.44 65.99 575.63 91.19 545.29 M 53.53 594.7 C 64.61 574.96 84.07 562.29 96.83 544.89 M 53.53 594.7 C 66.28 577.95 81.72 565.11 96.83 544.89 M 59.17 594.31 C 72.63 583.63 80.99 564.93 101.82 545.25 M 59.17 594.31 C 68.18 582.45 78.12 571.91 101.82 545.25 M 64.16 594.67 C 81.49 581.98 93.16 563.56 107.46 544.86 M 64.16 594.67 C 80.47 575.94 98.45 555.09 107.46 544.86 M 69.8 594.27 C 86.08 574.74 98.08 561.26 112.45 545.22 M 69.8 594.27 C 85 576.23 96.39 560.56 112.45 545.22 M 74.79 594.63 C 89.59 584.99 95.18 570.55 118.09 544.82 M 74.79 594.63 C 88.56 580.48 100 563.96 118.09 544.82 M 80.43 594.24 C 95.73 578.62 106.94 569.47 121.77 546.69 M 80.43 594.24 C 88.74 582.89 101.93 571.88 121.77 546.69 M 85.42 594.6 C 99.32 580.49 115.86 560.77 123.47 550.83 M 85.42 594.6 C 100.43 578.03 114.81 559.19 123.47 550.83 M 91.06 594.2 C 97.59 585.35 112.07 567.72 123.87 556.47 M 91.06 594.2 C 101.64 578.22 117.59 564.11 123.87 556.47 M 96.05 594.56 C 104.66 585.01 115.52 576.18 124.26 562.11 M 96.05 594.56 C 104.1 585.41 110.23 581.55 124.26 562.11 M 101.04 594.92 C 107.23 586.73 119.85 578.8 124 568.51 M 101.04 594.92 C 107.39 585.8 116.56 578.59 124 568.51 M 106.68 594.53 C 117.2 583.75 121.62 581.81 123.74 574.91 M 106.68 594.53 C 113.18 586.81 117.41 580.48 123.74 574.91 M 111.67 594.89 C 117.85 592.89 121.54 588.37 123.48 581.3 M 111.67 594.89 C 116.03 592.04 118.26 584.73 123.48 581.3 M 117.31 594.49 C 120.26 593.2 122.01 589.5 123.87 586.95 M 117.31 594.49 C 118.25 593.02 121.7 590.03 123.87 586.95" fill="none" stroke="#ff0000" stroke-width="0.5" stroke-linejoin="round" stroke-linecap="round" stroke-miterlimit="10" pointer-events="all" style="stroke: rgb(255, 0, 0);"/><path d="M 11.5 544 C 42.31 542.75 70.98 540.37 116.5 544 M 11.5 544 C 37.5 544.56 61.64 545.28 116.5 544 M 116.5 544 C 123.17 541.05 127.76 548.15 124 551.5 M 116.5 544 C 123.36 541.92 123.59 545.75 124 551.5 M 124 551.5 C 123.72 561.89 122.97 577.19 124 586.5 M 124 551.5 C 124.46 563.06 123.85 572.03 124 586.5 M 124 586.5 C 127.29 595.11 121.32 594.42 116.5 594 M 124 586.5 C 125.38 593.28 119.45 593.07 116.5 594 M 116.5 594 C 74.84 599.82 38.16 592.6 11.5 594 M 116.5 594 C 95.5 596.22 72.78 594.38 11.5 594 M 11.5 594 C 4.99 594.73 5.03 590.1 4 586.5 M 11.5 594 C 10.86 596.47 2.09 590.07 4 586.5 M 4 586.5 C 2.25 579.37 3.94 573.38 4 551.5 M 4 586.5 C 4.03 577.38 3.39 571.78 4 551.5 M 4 551.5 C 0.85 549.87 3.4 545.63 11.5 544 M 4 551.5 C 0.51 550.91 6.23 539.57 11.5 544" fill="none" stroke="#ff6666" stroke-linejoin="round" stroke-linecap="round" stroke-miterlimit="10" pointer-events="all" style="stroke: rgb(255, 102, 102);"/></g><g><g><switch><foreignObject style="overflow: visible; text-align: left;" pointer-events="none" width="100%" height="100%" requiredFeatures="http://www.w3.org/TR/SVG11/feature#Extensibility"><div xmlns="http://www.w3.org/1999/xhtml" style="display: flex; align-items: unsafe center; justify-content: unsafe center; width: 118px; height: 1px; padding-top: 569px; margin-left: 5px;"><div style="box-sizing: border-box; font-size: 0; text-align: center; color: #000000; "><div style="display: inline-block; font-size: 12px; font-family: 'Comic Sans MS'; color: light-dark(#000000, #ffffff); line-height: 1.2; pointer-events: all; white-space: normal; word-wrap: normal; "><font>Problem</font></div></div></div></foreignObject><text x="64" y="573" fill="light-dark(#000000, #ffffff)" font-family="'Comic Sans MS'" font-size="12px" text-anchor="middle">Problem</text></switch></g></g></g><g data-cell-id="S4akncoR3bGAJPy8Hi97-22"><g transform="translate(0.5,0.5)"><path d="M 344 544 L 344 480.37" fill="none" stroke="#000000" stroke-miterlimit="10" stroke-dasharray="8 4 1 4" pointer-events="stroke" style="stroke: light-dark(rgb(0, 0, 0), rgb(255, 255, 255)); animation: 531ms linear 0s infinite normal none running ge-flow-animation-RAtdleRkRd2ussTb1lIe; stroke-dashoffset: 17;"/><path d="M 344 475.12 L 347.5 482.12 L 344 480.37 L 340.5 482.12 Z" fill="#000000" stroke="#000000" stroke-miterlimit="10" pointer-events="all" style="fill: light-dark(rgb(0, 0, 0), rgb(255, 255, 255)); stroke: light-dark(rgb(0, 0, 0), rgb(255, 255, 255));"/></g></g><g data-cell-id="S4akncoR3bGAJPy8Hi97-8"><g transform="translate(0.5,0.5)" style="filter: drop-shadow(light-dark(rgba(0, 0, 0, 0.25), rgba(237, 237, 237, 0.25)) 2px 3px 2px);"><rect x="284" y="544" width="120" height="50" rx="7.5" ry="7.5" fill="none" stroke="none" pointer-events="all"/><path d="M 285.69 546.09 C 285.69 546.09 285.69 546.09 285.69 546.09 M 285.69 546.09 C 285.69 546.09 285.69 546.09 285.69 546.09 M 284.77 553.24 C 287.88 550.17 291.94 546.81 291.99 544.94 M 284.77 553.24 C 287.32 549.85 288.73 547.77 291.99 544.94 M 284.51 559.64 C 287.9 556.2 288.92 548.41 297.63 544.54 M 284.51 559.64 C 287.35 556.33 294.77 550.4 297.63 544.54 M 284.25 566.04 C 294.6 558.31 295.66 546.69 302.62 544.9 M 284.25 566.04 C 289.71 560.64 291.72 553.37 302.62 544.9 M 284.64 571.68 C 290.83 560.62 301.37 559.05 308.26 544.51 M 284.64 571.68 C 295.5 561.8 304.07 552.28 308.26 544.51 M 284.38 578.08 C 290.09 568.54 301.22 553.99 313.25 544.87 M 284.38 578.08 C 291.46 566.77 302.32 556.77 313.25 544.87 M 284.78 583.72 C 296.96 570.3 308.84 552.72 318.89 544.47 M 284.78 583.72 C 293.99 572.11 308.14 558.29 318.89 544.47 M 285.83 588.61 C 294.09 574.43 306.42 566.98 323.88 544.83 M 285.83 588.61 C 292.29 581.12 300.95 568.05 323.88 544.83 M 287.54 592.74 C 301.19 572.95 321.16 556.97 329.52 544.44 M 287.54 592.74 C 300.33 578.12 314.92 561.35 329.52 544.44 M 291.87 593.86 C 307.23 578.43 325.55 555.55 334.51 544.8 M 291.87 593.86 C 306.03 578.55 317.95 564.82 334.51 544.8 M 296.85 594.22 C 309.17 578.39 316.86 567.78 339.5 545.16 M 296.85 594.22 C 305.89 586.6 315.76 574.31 339.5 545.16 M 301.84 594.58 C 312.11 584.67 324.18 573.44 345.14 544.77 M 301.84 594.58 C 312.45 585.48 319.42 574.36 345.14 544.77 M 307.48 594.18 C 314.95 578.89 327.43 567.33 350.13 545.13 M 307.48 594.18 C 320.92 580.83 330.77 565.39 350.13 545.13 M 312.47 594.54 C 321.14 586.14 333.75 573.71 355.77 544.73 M 312.47 594.54 C 320.01 582.09 331.35 574.51 355.77 544.73 M 318.11 594.15 C 332.7 577.32 346.57 562.22 360.76 545.09 M 318.11 594.15 C 330.98 578.12 346.24 561.68 360.76 545.09 M 323.1 594.51 C 332.39 582.9 346.83 568.72 366.4 544.7 M 323.1 594.51 C 333.2 583.2 340.5 571.21 366.4 544.7 M 328.74 594.11 C 345.62 574.43 363.17 561.26 371.39 545.06 M 328.74 594.11 C 340.04 577.45 353.64 563.65 371.39 545.06 M 333.73 594.47 C 343.91 583.47 357.63 569.41 377.03 544.66 M 333.73 594.47 C 345.82 581.44 353.17 569.65 377.03 544.66 M 339.37 594.08 C 354.02 576.62 368.51 554.57 382.02 545.02 M 339.37 594.08 C 352.99 579.11 367.68 562.29 382.02 545.02 M 344.36 594.44 C 361.79 579.56 370.71 565.99 387 545.38 M 344.36 594.44 C 358.34 577.29 368.63 564.27 387 545.38 M 349.35 594.8 C 357.16 580.94 370.89 576.62 392.65 544.99 M 349.35 594.8 C 360.5 581.33 370.99 569.41 392.65 544.99 M 354.99 594.4 C 369.03 581.27 384.8 560.1 397.63 545.35 M 354.99 594.4 C 367.96 576.02 385.18 560.84 397.63 545.35 M 359.98 594.76 C 374.02 580 384.29 564.75 401.31 547.22 M 359.98 594.76 C 373.42 579.81 388.06 563.02 401.31 547.22 M 365.62 594.37 C 376.99 582.12 387.66 566.76 403.67 550.6 M 365.62 594.37 C 375.11 582.74 385.09 572.11 403.67 550.6 M 370.61 594.73 C 384.41 583.24 398.54 565.83 404.07 556.24 M 370.61 594.73 C 383.59 578.72 397.17 567.17 404.07 556.24 M 376.25 594.33 C 385.96 589.5 391.06 579.34 403.81 562.64 M 376.25 594.33 C 385.92 584.85 395.49 572.29 403.81 562.64 M 381.24 594.69 C 392.94 586.43 401.82 574.75 404.2 568.28 M 381.24 594.69 C 386.72 588.15 392.2 582.93 404.2 568.28 M 386.88 594.3 C 387.16 586.02 393.53 587.21 403.94 574.68 M 386.88 594.3 C 390.91 588.14 399.9 579.79 403.94 574.68 M 391.87 594.66 C 393.47 593.44 394.51 587.01 403.68 581.08 M 391.87 594.66 C 394.49 588.48 397.78 585.16 403.68 581.08 M 397.51 594.27 C 399.16 592.07 400.31 590.28 403.42 587.47 M 397.51 594.27 C 399.86 591.78 401.3 589.85 403.42 587.47" fill="none" stroke="#d5e8d4" stroke-width="0.5" stroke-linejoin="round" stroke-linecap="round" stroke-miterlimit="10" pointer-events="all" style="stroke: rgb(213, 232, 212);"/><path d="M 291.5 544 C 320.03 542.36 346.34 540.37 396.5 544 M 291.5 544 C 323.46 543.72 354.3 542.88 396.5 544 M 396.5 544 C 404.57 546.11 405.51 547.4 404 551.5 M 396.5 544 C 399.16 547.64 405.52 544.61 404 551.5 M 404 551.5 C 401.77 556.01 400.14 562.87 404 586.5 M 404 551.5 C 405.72 564.06 402.61 572.11 404 586.5 M 404 586.5 C 404.48 587.91 398.29 594.98 396.5 594 M 404 586.5 C 406.6 588.81 405.93 590.09 396.5 594 M 396.5 594 C 359.3 595.37 320.93 596.19 291.5 594 M 396.5 594 C 371.43 595.57 346.98 596.43 291.5 594 M 291.5 594 C 285.21 590.15 280.68 595.15 284 586.5 M 291.5 594 C 289.92 591.84 281.81 594.86 284 586.5 M 284 586.5 C 285 579.77 282.66 568.25 284 551.5 M 284 586.5 C 285.46 573.98 283.26 563.08 284 551.5 M 284 551.5 C 285.73 549.86 284.3 547.01 291.5 544 M 284 551.5 C 283.87 542.17 283.66 539.52 291.5 544" fill="none" stroke="#82b366" stroke-linejoin="round" stroke-linecap="round" stroke-miterlimit="10" pointer-events="all" style="stroke: rgb(130, 179, 102);"/></g><g><g><switch><foreignObject style="overflow: visible; text-align: left;" pointer-events="none" width="100%" height="100%" requiredFeatures="http://www.w3.org/TR/SVG11/feature#Extensibility"><div xmlns="http://www.w3.org/1999/xhtml" style="display: flex; align-items: unsafe center; justify-content: unsafe center; width: 118px; height: 1px; padding-top: 569px; margin-left: 285px;"><div style="box-sizing: border-box; font-size: 0; text-align: center; color: #000000; "><div style="display: inline-block; font-size: 12px; font-family: 'Comic Sans MS'; color: light-dark(#000000, #ffffff); line-height: 1.2; pointer-events: all; white-space: normal; word-wrap: normal; ">Solution</div></div></div></foreignObject><text x="344" y="573" fill="light-dark(#000000, #ffffff)" font-family="'Comic Sans MS'" font-size="12px" text-anchor="middle">Solution</text></switch></g></g></g><g data-cell-id="S4akncoR3bGAJPy8Hi97-23"><g transform="translate(0.5,0.5)"><path d="M 64 414 L 64 370.37" fill="none" stroke="#000000" stroke-miterlimit="10" pointer-events="stroke" stroke-dasharray="8" style="stroke: light-dark(rgb(0, 0, 0), rgb(255, 255, 255)); animation: 500ms linear 0s infinite normal none running ge-flow-animation-RAtdleRkRd2ussTb1lIe; stroke-dashoffset: 16;"/><path d="M 64 365.12 L 67.5 372.12 L 64 370.37 L 60.5 372.12 Z" fill="#000000" stroke="#000000" stroke-miterlimit="10" pointer-events="all" style="fill: light-dark(rgb(0, 0, 0), rgb(255, 255, 255)); stroke: light-dark(rgb(0, 0, 0), rgb(255, 255, 255));"/></g></g><g data-cell-id="S4akncoR3bGAJPy8Hi97-9"><g transform="translate(0.5,0.5)"><rect x="4" y="414" width="120" height="60" rx="9" ry="9" fill="#fff2cc" stroke="#d6b656" pointer-events="all" style="fill: rgb(255, 242, 204); stroke: rgb(214, 182, 86);"/></g><g><g><switch><foreignObject style="overflow: visible; text-align: left;" pointer-events="none" width="100%" height="100%" requiredFeatures="http://www.w3.org/TR/SVG11/feature#Extensibility"><div xmlns="http://www.w3.org/1999/xhtml" style="display: flex; align-items: unsafe center; justify-content: unsafe center; width: 118px; height: 1px; padding-top: 444px; margin-left: 5px;"><div style="box-sizing: border-box; font-size: 0; text-align: center; color: #000000; "><div style="display: inline-block; font-size: 12px; font-family: 'Comic Sans MS'; color: #000000; line-height: 1.2; pointer-events: all; white-space: normal; word-wrap: normal; ">CodeBERT</div></div></div></foreignObject><text x="64" y="448" fill="#000000" font-family="'Comic Sans MS'" font-size="12px" text-anchor="middle">CodeBERT</text></switch></g></g></g><g data-cell-id="S4akncoR3bGAJPy8Hi97-24"><g transform="translate(0.5,0.5)"><path d="M 344 414 L 344 370.37" fill="none" stroke="#000000" stroke-miterlimit="10" pointer-events="stroke" stroke-dasharray="8" style="stroke: light-dark(rgb(0, 0, 0), rgb(255, 255, 255)); animation: 500ms linear 0s infinite normal none running ge-flow-animation-RAtdleRkRd2ussTb1lIe; stroke-dashoffset: 16;"/><path d="M 344 365.12 L 347.5 372.12 L 344 370.37 L 340.5 372.12 Z" fill="#000000" stroke="#000000" stroke-miterlimit="10" pointer-events="all" style="fill: light-dark(rgb(0, 0, 0), rgb(255, 255, 255)); stroke: light-dark(rgb(0, 0, 0), rgb(255, 255, 255));"/></g></g><g data-cell-id="S4akncoR3bGAJPy8Hi97-10"><g transform="translate(0.5,0.5)"><rect x="284" y="414" width="120" height="60" rx="9" ry="9" fill="#fff2cc" stroke="#d6b656" pointer-events="all" style="fill: rgb(255, 242, 204); stroke: rgb(214, 182, 86);"/></g><g><g><switch><foreignObject style="overflow: visible; text-align: left;" pointer-events="none" width="100%" height="100%" requiredFeatures="http://www.w3.org/TR/SVG11/feature#Extensibility"><div xmlns="http://www.w3.org/1999/xhtml" style="display: flex; align-items: unsafe center; justify-content: unsafe center; width: 118px; height: 1px; padding-top: 444px; margin-left: 285px;"><div style="box-sizing: border-box; font-size: 0; text-align: center; color: #000000; "><div style="display: inline-block; font-size: 12px; font-family: 'Comic Sans MS'; color: #000000; line-height: 1.2; pointer-events: all; white-space: normal; word-wrap: normal; ">CodeBERT</div></div></div></foreignObject><text x="344" y="448" fill="#000000" font-family="'Comic Sans MS'" font-size="12px" text-anchor="middle">CodeBERT</text></switch></g></g></g><g data-cell-id="S4akncoR3bGAJPy8Hi97-25"><g transform="translate(0.5,0.5)"><path d="M 64 304 L 64 284.05 L 64 289 L 64 275.37" fill="none" stroke="#000000" stroke-miterlimit="10" pointer-events="stroke" stroke-dasharray="8" style="stroke: light-dark(rgb(0, 0, 0), rgb(255, 255, 255)); animation: 500ms linear 0s infinite normal none running ge-flow-animation-RAtdleRkRd2ussTb1lIe; stroke-dashoffset: 16;"/><path d="M 64 270.12 L 67.5 277.12 L 64 275.37 L 60.5 277.12 Z" fill="#000000" stroke="#000000" stroke-miterlimit="10" pointer-events="all" style="fill: light-dark(rgb(0, 0, 0), rgb(255, 255, 255)); stroke: light-dark(rgb(0, 0, 0), rgb(255, 255, 255));"/></g></g><g data-cell-id="S4akncoR3bGAJPy8Hi97-11"><g transform="translate(0.5,0.5)"><rect x="4" y="304" width="120" height="60" rx="9" ry="9" fill="#dae8fc" stroke="#6c8ebf" pointer-events="all" style="fill: rgb(218, 232, 252); stroke: rgb(108, 142, 191);"/></g><g><g><switch><foreignObject style="overflow: visible; text-align: left;" pointer-events="none" width="100%" height="100%" requiredFeatures="http://www.w3.org/TR/SVG11/feature#Extensibility"><div xmlns="http://www.w3.org/1999/xhtml" style="display: flex; align-items: unsafe center; justify-content: unsafe center; width: 118px; height: 1px; padding-top: 334px; margin-left: 5px;"><div style="box-sizing: border-box; font-size: 0; text-align: center; color: #000000; "><div style="display: inline-block; font-size: 12px; font-family: 'Comic Sans MS'; color: #000000; line-height: 1.2; pointer-events: all; white-space: normal; word-wrap: normal; ">Projector</div></div></div></foreignObject><text x="64" y="338" fill="#000000" font-family="'Comic Sans MS'" font-size="12px" text-anchor="middle">Projector</text></switch></g></g></g><g data-cell-id="S4akncoR3bGAJPy8Hi97-26"><g transform="translate(0.5,0.5)"><path d="M 344 304 L 344 284.05 L 344 289 L 344 275.37" fill="none" stroke="#000000" stroke-miterlimit="10" pointer-events="stroke" stroke-dasharray="8" style="stroke: light-dark(rgb(0, 0, 0), rgb(255, 255, 255)); animation: 500ms linear 0s infinite normal none running ge-flow-animation-RAtdleRkRd2ussTb1lIe; stroke-dashoffset: 16;"/><path d="M 344 270.12 L 347.5 277.12 L 344 275.37 L 340.5 277.12 Z" fill="#000000" stroke="#000000" stroke-miterlimit="10" pointer-events="all" style="fill: light-dark(rgb(0, 0, 0), rgb(255, 255, 255)); stroke: light-dark(rgb(0, 0, 0), rgb(255, 255, 255));"/></g></g><g data-cell-id="S4akncoR3bGAJPy8Hi97-12"><g transform="translate(0.5,0.5)"><rect x="284" y="304" width="120" height="60" rx="9" ry="9" fill="#dae8fc" stroke="#6c8ebf" pointer-events="all" style="fill: rgb(218, 232, 252); stroke: rgb(108, 142, 191);"/></g><g><g><switch><foreignObject style="overflow: visible; text-align: left;" pointer-events="none" width="100%" height="100%" requiredFeatures="http://www.w3.org/TR/SVG11/feature#Extensibility"><div xmlns="http://www.w3.org/1999/xhtml" style="display: flex; align-items: unsafe center; justify-content: unsafe center; width: 118px; height: 1px; padding-top: 334px; margin-left: 285px;"><div style="box-sizing: border-box; font-size: 0; text-align: center; color: #000000; "><div style="display: inline-block; font-size: 12px; font-family: 'Comic Sans MS'; color: #000000; line-height: 1.2; pointer-events: all; white-space: normal; word-wrap: normal; ">Projector</div></div></div></foreignObject><text x="344" y="338" fill="#000000" font-family="'Comic Sans MS'" font-size="12px" text-anchor="middle">Projector</text></switch></g></g></g><g data-cell-id="S4akncoR3bGAJPy8Hi97-27"><g transform="translate(0.5,0.5)"><path d="M 64 204 L 64 170.37" fill="none" stroke="#000000" stroke-miterlimit="10" pointer-events="stroke" stroke-dasharray="8" style="stroke: light-dark(rgb(0, 0, 0), rgb(255, 255, 255)); animation: 500ms linear 0s infinite normal none running ge-flow-animation-RAtdleRkRd2ussTb1lIe; stroke-dashoffset: 16;"/><path d="M 64 165.12 L 67.5 172.12 L 64 170.37 L 60.5 172.12 Z" fill="#000000" stroke="#000000" stroke-miterlimit="10" pointer-events="all" style="fill: light-dark(rgb(0, 0, 0), rgb(255, 255, 255)); stroke: light-dark(rgb(0, 0, 0), rgb(255, 255, 255));"/></g></g><g data-cell-id="S4akncoR3bGAJPy8Hi97-13"><g transform="translate(0.5,0.5)" style="filter: drop-shadow(light-dark(rgba(0, 0, 0, 0.25), rgba(237, 237, 237, 0.25)) 2px 3px 2px);"><ellipse cx="64" cy="236.5" rx="32.5" ry="32.5" fill="#ff0080" stroke="none" pointer-events="all" style="fill: rgb(255, 0, 128);"/></g><g><g><switch><foreignObject style="overflow: visible; text-align: left;" pointer-events="none" width="100%" height="100%" requiredFeatures="http://www.w3.org/TR/SVG11/feature#Extensibility"><div xmlns="http://www.w3.org/1999/xhtml" style="display: flex; align-items: unsafe center; justify-content: unsafe center; width: 63px; height: 1px; padding-top: 237px; margin-left: 33px;"><div style="box-sizing: border-box; font-size: 0; text-align: center; color: #ffffff; "><div style="display: inline-block; font-size: 12px; font-family: 'Comic Sans MS'; color: #ffffff; line-height: 1.2; pointer-events: all; white-space: normal; word-wrap: normal; ">z<sub>problem</sub></div></div></div></foreignObject><text x="64" y="240" fill="#ffffff" font-family="'Comic Sans MS'" font-size="12px" text-anchor="middle">zproblem</text></switch></g></g></g><g data-cell-id="S4akncoR3bGAJPy8Hi97-30"><g transform="translate(0.5,0.5)"><path d="M 64 104 L 64 84.05 L 64 89 L 64 75.37" fill="none" stroke="#000000" stroke-miterlimit="10" pointer-events="stroke" stroke-dasharray="8" style="stroke: light-dark(rgb(0, 0, 0), rgb(255, 255, 255)); animation: 500ms linear 0s infinite normal none running ge-flow-animation-RAtdleRkRd2ussTb1lIe; stroke-dashoffset: 16;"/><path d="M 64 70.12 L 67.5 77.12 L 64 75.37 L 60.5 77.12 Z" fill="#000000" stroke="#000000" stroke-miterlimit="10" pointer-events="all" style="fill: light-dark(rgb(0, 0, 0), rgb(255, 255, 255)); stroke: light-dark(rgb(0, 0, 0), rgb(255, 255, 255));"/></g></g><g data-cell-id="S4akncoR3bGAJPy8Hi97-14"><g transform="translate(0.5,0.5)" style="filter: drop-shadow(light-dark(rgba(0, 0, 0, 0.25), rgba(237, 237, 237, 0.25)) 2px 3px 2px);"><rect x="4" y="104" width="120" height="60" rx="9" ry="9" fill="#b266ff" stroke="none" pointer-events="all" style="fill: rgb(178, 102, 255);"/></g><g><g><switch><foreignObject style="overflow: visible; text-align: left;" pointer-events="none" width="100%" height="100%" requiredFeatures="http://www.w3.org/TR/SVG11/feature#Extensibility"><div xmlns="http://www.w3.org/1999/xhtml" style="display: flex; align-items: unsafe center; justify-content: unsafe center; width: 118px; height: 1px; padding-top: 134px; margin-left: 5px;"><div style="box-sizing: border-box; font-size: 0; text-align: center; color: #000000; "><div style="display: inline-block; font-size: 12px; font-family: 'Comic Sans MS'; color: light-dark(#000000, #ffffff); line-height: 1.2; pointer-events: all; white-space: normal; word-wrap: normal; ">Predictor</div></div></div></foreignObject><text x="64" y="138" fill="light-dark(#000000, #ffffff)" font-family="'Comic Sans MS'" font-size="12px" text-anchor="middle">Predictor</text></switch></g></g></g><g data-cell-id="S4akncoR3bGAJPy8Hi97-18"><g transform="translate(0.5,0.5)" style="filter: drop-shadow(light-dark(rgba(0, 0, 0, 0.25), rgba(237, 237, 237, 0.25)) 2px 3px 2px);"><rect x="259" y="94" width="170" height="60" rx="9" ry="9" fill="#fad9d5" stroke="none" pointer-events="all" style="fill: rgb(250, 217, 213);"/></g><g><g><switch><foreignObject style="overflow: visible; text-align: left;" pointer-events="none" width="100%" height="100%" requiredFeatures="http://www.w3.org/TR/SVG11/feature#Extensibility"><div xmlns="http://www.w3.org/1999/xhtml" style="display: flex; align-items: unsafe center; justify-content: unsafe center; width: 168px; height: 1px; padding-top: 124px; margin-left: 260px;"><div style="box-sizing: border-box; font-size: 0; text-align: center; color: #000000; "><div style="display: inline-block; font-size: 12px; font-family: Helvetica; color: #000000; line-height: 1.2; pointer-events: all; white-space: normal; word-wrap: normal; "><font face="Comic Sans MS">Loss( z<span style="font-size: 10px;"><sub>solution </sub></span>, z<sub style="">predicted </sub>)</font></div></div></div></foreignObject><text x="344" y="128" fill="#000000" font-family="Helvetica" font-size="12px" text-anchor="middle">Loss( zsolution , zpredicted...</text></switch></g></g></g><g data-cell-id="S4akncoR3bGAJPy8Hi97-29"><g transform="translate(0.5,0.5)"><path d="M 344 204 L 344 160.37" fill="none" stroke="#000000" stroke-miterlimit="10" pointer-events="stroke" stroke-dasharray="8" style="stroke: light-dark(rgb(0, 0, 0), rgb(255, 255, 255)); animation: 500ms linear 0s infinite normal none running ge-flow-animation-RAtdleRkRd2ussTb1lIe; stroke-dashoffset: 16;"/><path d="M 344 155.12 L 347.5 162.12 L 344 160.37 L 340.5 162.12 Z" fill="#000000" stroke="#000000" stroke-miterlimit="10" pointer-events="all" style="fill: light-dark(rgb(0, 0, 0), rgb(255, 255, 255)); stroke: light-dark(rgb(0, 0, 0), rgb(255, 255, 255));"/></g></g><g data-cell-id="S4akncoR3bGAJPy8Hi97-19"><g transform="translate(0.5,0.5)" style="filter: drop-shadow(light-dark(rgba(0, 0, 0, 0.25), rgba(237, 237, 237, 0.25)) 2px 3px 2px);"><ellipse cx="344" cy="236.5" rx="32.5" ry="32.5" fill="#67ab9f" stroke="none" pointer-events="all" style="fill: rgb(103, 171, 159);"/></g><g><g><switch><foreignObject style="overflow: visible; text-align: left;" pointer-events="none" width="100%" height="100%" requiredFeatures="http://www.w3.org/TR/SVG11/feature#Extensibility"><div xmlns="http://www.w3.org/1999/xhtml" style="display: flex; align-items: unsafe center; justify-content: unsafe center; width: 63px; height: 1px; padding-top: 237px; margin-left: 313px;"><div style="box-sizing: border-box; font-size: 0; text-align: center; color: #000000; "><div style="display: inline-block; font-size: 12px; font-family: 'Comic Sans MS'; color: #000000; line-height: 1.2; pointer-events: all; white-space: normal; word-wrap: normal; ">z<span style="font-size: 10px;"><sub>solution</sub></span></div></div></div></foreignObject><text x="344" y="240" fill="#000000" font-family="'Comic Sans MS'" font-size="12px" text-anchor="middle">zsolution</text></switch></g></g></g><g data-cell-id="S4akncoR3bGAJPy8Hi97-28"><g transform="translate(0.5,0.5)"><path d="M 96.5 36.52 L 344 36.52 L 344 87.63" fill="none" stroke="#000000" stroke-miterlimit="10" pointer-events="stroke" stroke-dasharray="8" style="stroke: light-dark(rgb(0, 0, 0), rgb(255, 255, 255)); animation: 500ms linear 0s infinite normal none running ge-flow-animation-RAtdleRkRd2ussTb1lIe; stroke-dashoffset: 16;"/><path d="M 344 92.88 L 340.5 85.88 L 344 87.63 L 347.5 85.88 Z" fill="#000000" stroke="#000000" stroke-miterlimit="10" pointer-events="all" style="fill: light-dark(rgb(0, 0, 0), rgb(255, 255, 255)); stroke: light-dark(rgb(0, 0, 0), rgb(255, 255, 255));"/></g></g><g data-cell-id="S4akncoR3bGAJPy8Hi97-20"><g transform="translate(0.5,0.5)" style="filter: drop-shadow(light-dark(rgba(0, 0, 0, 0.25), rgba(237, 237, 237, 0.25)) 2px 3px 2px);"><ellipse cx="64" cy="36.5" rx="32.5" ry="32.5" fill="#b3ff66" stroke="none" pointer-events="all" style="fill: rgb(179, 255, 102);"/></g><g><g><switch><foreignObject style="overflow: visible; text-align: left;" pointer-events="none" width="100%" height="100%" requiredFeatures="http://www.w3.org/TR/SVG11/feature#Extensibility"><div xmlns="http://www.w3.org/1999/xhtml" style="display: flex; align-items: unsafe center; justify-content: unsafe center; width: 63px; height: 1px; padding-top: 37px; margin-left: 33px;"><div style="box-sizing: border-box; font-size: 0; text-align: center; color: #000000; "><div style="display: inline-block; font-size: 12px; font-family: Helvetica; color: #000000; line-height: 1.2; pointer-events: all; white-space: normal; word-wrap: normal; ">z<sub>predicted</sub></div></div></div></foreignObject><text x="64" y="40" fill="#000000" font-family="Helvetica" font-size="12px" text-anchor="middle">zpredicted</text></switch></g></g></g></g></g></g><switch><g requiredFeatures="http://www.w3.org/TR/SVG11/feature#Extensibility"/><a transform="translate(0,-5)" xlink:href="https://www.drawio.com/doc/faq/svg-export-text-problems" target="_blank"><text text-anchor="middle" font-size="10px" x="50%" y="100%">Text is not SVG - cannot display</text></a></switch></svg>